<?xml version="1.0" encoding="utf-8"?>
<!-- Generator: Adobe Illustrator 16.0.0, SVG Export Plug-In . SVG Version: 6.00 Build 0)  -->
<!DOCTYPE svg PUBLIC "-//W3C//DTD SVG 1.1//EN" "http://www.w3.org/Graphics/SVG/1.1/DTD/svg11.dtd">
<svg version="1.1" id="Layer_1" xmlns="http://www.w3.org/2000/svg" xmlns:xlink="http://www.w3.org/1999/xlink" x="0px" y="0px"
	 width="232px" height="231px" viewBox="0 0 232 231" enable-background="new 0 0 232 231" xml:space="preserve">
<linearGradient id="SVGID_1_" gradientUnits="userSpaceOnUse" x1="206.5371" y1="278.3516" x2="51.4526" y2="-0.5929">
	<stop  offset="0" style="stop-color:#E72E5D"/>
	<stop  offset="1" style="stop-color:#84107D"/>
</linearGradient>
<path fill="url(#SVGID_1_)" d="M29.607,185.854c-15.662-19.199-25.07-43.696-25.07-70.347c0-61.461,50-111.463,111.462-111.463
	c28.843,0,55.161,11.013,74.974,29.054l-17.187,16.271c-15.459-13.523-35.683-21.732-57.787-21.732
	c-48.451,0-87.868,39.418-87.868,87.87c0,20.378,6.974,39.158,18.66,54.08L29.607,185.854z M202.39,45.157l-17.184,16.267
	c11.687,14.922,18.665,33.703,18.665,54.083c0,48.452-39.421,87.873-87.872,87.873c-22.107,0-42.33-8.209-57.789-21.736
	l-17.188,16.271c19.812,18.043,46.133,29.059,74.978,29.059c61.461,0,111.464-50.004,111.464-111.465
	C227.463,88.853,218.055,64.357,202.39,45.157z M113.375,175.095c27.114-0.956,46.859-21.918,46.859-48.395V66.617H89.239v26.37
	h44.626V126.7c0,12.147-11.351,21.041-19.795,21.956c-5.732,0.617-12.903-0.308-20.708-7.324l-18.89,18.397
	C87.808,173.421,106.317,175.343,113.375,175.095z"/>
</svg>
