<?xml version="1.0" encoding="utf-8"?>
<!-- Generator: Adobe Illustrator 16.0.0, SVG Export Plug-In . SVG Version: 6.00 Build 0)  -->
<!DOCTYPE svg PUBLIC "-//W3C//DTD SVG 1.1//EN" "http://www.w3.org/Graphics/SVG/1.1/DTD/svg11.dtd">
<svg version="1.1" id="Layer_1" xmlns="http://www.w3.org/2000/svg" xmlns:xlink="http://www.w3.org/1999/xlink" x="0px" y="0px"
	 width="233px" height="286px" viewBox="0 0 233 286" enable-background="new 0 0 233 286" xml:space="preserve">
<rect x="-108" y="-97" fill="#FFFFFF" width="450" height="450"/>
<radialGradient id="SVGID_1_" cx="117.4038" cy="891.8125" r="126.8315" gradientTransform="matrix(0.7441 0 0 0.1185 29.6396 160.5709)" gradientUnits="userSpaceOnUse">
	<stop  offset="0" style="stop-color:#D4D4D4"/>
	<stop  offset="0.4677" style="stop-color:#F2F2F2"/>
	<stop  offset="1" style="stop-color:#FFFFFF"/>
</radialGradient>
<rect x="19" y="251.821" fill="url(#SVGID_1_)" width="196" height="28.858"/>
<linearGradient id="SVGID_2_" gradientUnits="userSpaceOnUse" x1="207.5371" y1="279.3516" x2="52.4526" y2="0.4071">
	<stop  offset="0" style="stop-color:#E72E5D"/>
	<stop  offset="1" style="stop-color:#84107D"/>
</linearGradient>
<path fill="url(#SVGID_2_)" d="M30.607,186.854c-15.662-19.199-25.07-43.696-25.07-70.347c0-61.461,50-111.463,111.462-111.463
	c28.843,0,55.161,11.013,74.974,29.054l-17.187,16.271c-15.459-13.523-35.683-21.732-57.787-21.732
	c-48.451,0-87.868,39.418-87.868,87.87c0,20.378,6.974,39.158,18.66,54.08L30.607,186.854z M203.39,46.157l-17.184,16.267
	c11.687,14.922,18.665,33.703,18.665,54.083c0,48.452-39.421,87.873-87.872,87.873c-22.107,0-42.33-8.209-57.789-21.736
	l-17.188,16.271c19.812,18.043,46.133,29.059,74.978,29.059c61.461,0,111.464-50.004,111.464-111.465
	C228.463,89.853,219.055,65.357,203.39,46.157z M114.375,176.095c27.114-0.956,46.859-21.918,46.859-48.395V67.617H90.239v26.37
	h44.626V127.7c0,12.147-11.351,21.041-19.795,21.956c-5.731,0.617-12.902-0.308-20.707-7.324l-18.89,18.397
	C88.808,174.421,107.317,176.343,114.375,176.095z"/>
</svg>
